# File created by Blade
# Date/Time:  Wed Sep 24 19:42:34 2014
# Frame Rate: 120.000 fps
#------------------------------------------------------
:FULLY-SPECIFIED
:DEGREES
1136
root -4.243055 32.980209 -3.035177 8.063333 12.804547 -1.171272
Spine -17.118696 20.681161 -1.105953
Head 17.587741 -25.465230 -6.967865
LeftShoulder -7.950182 18.087540 8.048111
LeftArm 25.731668 37.203458 -66.334038
LeftForeArm -0.844427 -0.000000 22.928090
LeftHand -23.351679 0.000000 -8.916544
LeftHandThumb1 -26.253704 0.000000 33.147579
RightShoulder -20.284042 35.032543 -48.486514
RightArm 83.343872 47.897651 119.575814
RightForeArm 66.392944 0.000000 125.598512
RightHand 10.323460 -0.000000 -7.105481
RightHandThumb1 -24.326973 -0.000000 -32.862282
LeftUpLeg -3.490629 -2.216530 5.517045
LeftLeg -2.389041 -0.000000 0.000000
LeftFoot -6.787054 1.961129 -18.022770
LeftToeBase 9.977924 -0.000000 -0.000000
RightUpLeg -2.066975 -15.925198 -0.338182
RightLeg 0.958410 -0.000000 -0.000000
RightFoot -6.400920 -6.650836 -13.571163
RightToeBase 0.829691 -0.000000 -0.000000
1137
root -4.242683 32.979967 -3.036757 8.063100 12.791375 -1.165761
Spine -17.106088 20.656284 -1.132267
Head 17.553646 -25.454537 -6.879014
LeftShoulder -7.953840 18.115703 8.049495
LeftArm 25.796888 37.245218 -66.267000
LeftForeArm -0.874747 -0.000000 22.898682
LeftHand -23.277648 0.000000 -8.986419
LeftHandThumb1 -26.253704 0.000000 33.147579
RightShoulder -20.267046 34.988886 -48.470631
RightArm 83.352170 47.904086 119.565928
RightForeArm 66.246492 -0.000000 125.581867
RightHand 10.262662 -0.000000 -7.085268
RightHandThumb1 -24.326973 -0.000000 -32.862282
LeftUpLeg -3.491594 -2.209857 5.508249
LeftLeg -2.383192 -0.000000 0.000000
LeftFoot -6.805133 1.979202 -17.971442
LeftToeBase 10.074499 -0.000000 -0.000000
RightUpLeg -2.069768 -15.931920 -0.343095
RightLeg 0.956478 -0.000000 -0.000000
RightFoot -6.403855 -6.644776 -13.604636
RightToeBase 0.831062 -0.000000 -0.000000
1138
root -4.242769 32.979963 -3.037792 8.061832 12.762709 -1.170725
Spine -17.097054 20.648244 -1.143381
Head 17.539538 -25.452153 -6.851011
LeftShoulder -7.951911 18.117910 8.044383
LeftArm 25.804628 37.279140 -66.235730
LeftForeArm -0.890283 0.000000 22.882692
LeftHand -23.558289 -0.000000 -8.485558
LeftHandThumb1 -26.253704 0.000000 33.147579
RightShoulder -20.259644 34.958302 -48.452762
RightArm 83.326092 47.873842 119.504847
RightForeArm 66.136325 -0.000000 125.566105
RightHand 10.264684 -0.000000 -7.157961
RightHandThumb1 -24.326973 -0.000000 -32.862282
LeftUpLeg -3.488340 -2.192961 5.508319
LeftLeg -2.383368 -0.000000 0.000000
LeftFoot -6.804366 1.983586 -18.009425
LeftToeBase 10.001123 -0.000000 -0.000000
RightUpLeg -2.079730 -15.919911 -0.340603
RightLeg 0.967517 -0.000000 -0.000000
RightFoot -6.407751 -6.630034 -13.614749
RightToeBase 0.836176 -0.000000 -0.000000
1139
root -4.243647 32.980366 -3.038548 8.058936 12.740960 -1.176114
Spine -17.088359 20.630688 -1.155390
Head 17.536195 -25.435130 -6.821910
LeftShoulder -7.963556 18.123259 8.034882
LeftArm 25.829396 37.320573 -66.185833
LeftForeArm -0.904189 -0.000000 22.853147
LeftHand -23.584611 -0.000000 -8.449331
LeftHandThumb1 -26.253704 0.000000 33.147579
RightShoulder -20.249016 34.951241 -48.438331
RightArm 83.252410 47.865657 119.394474
RightForeArm 66.047567 0.000000 125.549731
RightHand 10.341413 -0.000000 -7.211905
RightHandThumb1 -24.326973 -0.000000 -32.862282
LeftUpLeg -3.482906 -2.173936 5.511297
LeftLeg -2.385582 -0.000000 0.000000
LeftFoot -6.792029 1.993319 -17.982205
LeftToeBase 9.939675 -0.000000 -0.000000
RightUpLeg -2.082963 -15.913048 -0.336007
RightLeg 0.966031 -0.000000 -0.000000
RightFoot -6.392169 -6.614034 -13.600207
RightToeBase 0.791899 -0.000000 -0.000000
